<?xml version="1.0" encoding="utf-8"?>
<!-- Generator: Adobe Illustrator 27.5.0, SVG Export Plug-In . SVG Version: 6.00 Build 0)  -->
<svg version="1.1" xmlns="http://www.w3.org/2000/svg" xmlns:xlink="http://www.w3.org/1999/xlink" x="0px" y="0px"
	 viewBox="0 0 500 500" style="enable-background:new 0 0 500 500;" xml:space="preserve">
<g id="BACKGROUND">
	<rect style="fill:#F2F7F9;" width="500" height="500"/>
</g>
<g id="OBJECTS">
	<g>
		<g>
			<ellipse style="fill:#D4F0F9;" cx="440.838" cy="261.779" rx="17.788" ry="21.287"/>
			<ellipse style="fill:#D4F0F9;" cx="269.928" cy="92.136" rx="35.27" ry="29.472"/>
			<path style="fill:#D4F0F9;" d="M88.044,419.206h318.538c19.286-19.512,31.195-46.331,31.195-75.934
				c0-18.787-4.796-36.452-13.23-51.841c-8.571-15.639-12.234-33.371-11.619-51.195c0.019-0.548,0.029-1.099,0.029-1.652
				c0-17.61-9.644-32.963-23.938-41.074c-10.593-6.011-18.833-15.392-24.197-26.327c-10.833-22.084-33.53-37.288-59.788-37.288
				c-2.267,0-4.507,0.113-6.715,0.335c-23.902,2.399-47.96-2.529-68.768-14.533c-13.651-7.875-29.451-12.44-46.307-12.598
				c-51.995-0.487-95.046,41.721-95.539,93.716c-0.056,5.879,0.425,11.635,1.397,17.223c3.143,18.08-1.464,36.732-13.235,50.811
				C60.25,287.526,50.85,311.578,50.85,337.828C50.85,370.334,65.262,399.473,88.044,419.206z"/>
			<ellipse style="fill:#D4F0F9;" cx="60.406" cy="239.624" rx="19.306" ry="23.104"/>
		</g>
		<path style="fill:#B8E9F4;" d="M434.967,432.522c-1.622-19.886-83.849-13.583-185.064-13.583S66.462,412.636,64.84,432.522
			H434.967z"/>
		<g>
			<g>
				<g>
					<path style="fill:#59CEF7;" d="M438.46,275.225c7.23,0,7.656-10.883,0.436-11.257c-0.237-0.012-0.476-0.018-0.716-0.018
						c-1.791,0-3.5,0.348-5.067,0.975c-1.883-6.492-7.87-11.24-14.969-11.24c-3.203,0-6.18,0.968-8.657,2.624
						c-2.759-5.339-8.327-8.992-14.752-8.992c-8.06,0-14.776,5.745-16.282,13.364c-1.946-0.814-4.081-1.265-6.322-1.265
						c-5.572,0-10.492,2.78-13.453,7.029c-2.579,3.7,0.172,8.78,4.682,8.78H438.46z"/>
					<g>
						<circle style="fill:#FFC74A;" cx="150.27" cy="105.695" r="52.665"/>
						<path style="fill:#F9A428;" d="M170.208,56.947c9.692,9.551,15.706,22.825,15.706,37.508
							c0,29.086-23.579,52.665-52.665,52.665c-7.058,0-13.787-1.399-19.939-3.917c9.508,9.369,22.555,15.157,36.958,15.157
							c29.086,0,52.665-23.579,52.665-52.665C202.935,83.667,189.406,64.808,170.208,56.947z"/>
					</g>
					<path style="fill:#59CEF7;" d="M268.153,93.171c6.684,0,7.078-10.061,0.403-10.406c-0.219-0.011-0.44-0.017-0.662-0.017
						c-1.656,0-3.235,0.322-4.684,0.902c-1.741-6.002-7.275-10.39-13.838-10.39c-2.961,0-5.713,0.894-8.002,2.426
						c-2.551-4.936-7.698-8.312-13.637-8.312c-7.451,0-13.66,5.311-15.051,12.354c-1.799-0.753-3.773-1.17-5.844-1.17
						c-5.151,0-9.699,2.57-12.436,6.498c-2.384,3.421,0.159,8.116,4.328,8.116H268.153z"/>
					<path style="fill:#59CEF7;" d="M117.553,202.115c7.355,0,7.789-11.072,0.443-11.451c-0.241-0.013-0.484-0.019-0.729-0.019
						c-1.822,0-3.561,0.354-5.155,0.992c-1.915-6.605-8.006-11.434-15.228-11.434c-3.259,0-6.287,0.984-8.807,2.67
						c-2.807-5.432-8.471-9.148-15.007-9.148c-8.2,0-15.032,5.845-16.564,13.596c-1.979-0.828-4.152-1.287-6.432-1.287
						c-5.668,0-10.674,2.828-13.686,7.15c-2.623,3.764,0.174,8.932,4.763,8.932H117.553z"/>
				</g>
				<g>
					<g>
						<path style="fill:#0E8C74;" d="M353.19,168.74c0,0,21.654-68.808-2.695-103.692c0,0-6.177,19.234-15.821,37.801
							C321.266,128.665,332.413,154.832,353.19,168.74z"/>
						<path style="fill:#06967A;" d="M353.19,168.74c0,0,0.039-0.125,0.111-0.363c-16.468-14.498-16.324-33.141-9.406-56.065
							c7.655-25.366,6.599-47.264,6.599-47.264s-6.177,19.234-15.821,37.801C321.266,128.665,332.413,154.832,353.19,168.74z"/>
					</g>
					<path style="fill:#1AAA8E;" d="M336.046,194.643c0,0-46.793-28.339-51.718-90.341
						C284.328,104.302,334.092,135.481,336.046,194.643z"/>
					<path style="fill:#0E8C74;" d="M334.751,187.505c0,0-31.284-33.497-21.15-84.614
						C313.6,102.891,346.634,139.354,334.751,187.505z"/>
					<g>
						<path style="fill:#1AAA8E;" d="M333.498,161.519c0,0-1.138-44.589,13.512-44.817c14.651-0.228,11.884,24.957,11.884,24.957
							s5.07-47.56,19.343-45.955c13.647,1.535,7.745,20.308,7.745,20.308s19.263-48.64,37.291-26.798
							c18.028,21.842-23.899,39.455-23.899,39.455s19.487-7.074,22.411,7.631c2.924,14.705-42.447,22.903-42.447,22.903
							s25.571-5.877,24.917,9.517c-0.655,15.394-71.764,21.476-71.764,21.476L333.498,161.519z"/>
						<g>
							<path style="fill:#0E7763;" d="M318.013,205.536l-0.837-0.978c24.554-21.021,93.262-102.433,93.954-103.253l0.985,0.83
								C411.423,102.955,342.646,184.447,318.013,205.536z"/>
							<path style="fill:#0E7763;" d="M345.918,175.604c3.755-15.905,2.141-41.844,2.124-42.104l1.285-0.083
								c0.017,0.262,1.643,26.39-2.156,42.483L345.918,175.604z"/>
							<path style="fill:#0E7763;" d="M374.232,144.106c2.595-8.775,3.23-31.226,3.236-31.451l1.288,0.035
								c-0.025,0.929-0.646,22.845-3.288,31.782L374.232,144.106z"/>
							<path style="fill:#0E7763;" d="M346.948,176.856l-0.491-1.19c15.286-6.305,41.341-8.846,41.602-8.871l0.122,1.282
								C387.922,168.102,362.056,170.624,346.948,176.856z"/>
							<path style="fill:#0E7763;" d="M374.908,145.055l-0.557-1.162c8.404-4.027,29.944-8.118,30.857-8.29l0.238,1.266
								C405.225,136.911,383.16,141.1,374.908,145.055z"/>
						</g>
					</g>
					<g>
						<path style="fill:#0E8C74;" d="M166.57,310.35c0,0-55.879-26.061-68.94-94.937C97.63,215.413,157.183,244.296,166.57,310.35z"
							/>
						<path style="fill:#1AAA8E;" d="M155.539,295.189c0,0-36.605-36.452-27.277-94.441
							C128.262,200.748,166.959,240.469,155.539,295.189z"/>
						<g>
							<path style="fill:#1AAA8E;" d="M231.324,380.943c0,0-70.657-120.86-152.553-131.357c0,0,19.59,33.963,33.7,72.038
								C132.089,374.562,184.237,392.666,231.324,380.943z"/>
							<path style="fill:#06967A;" d="M231.324,380.943c0,0-0.129-0.22-0.376-0.633c-42.316,4.763-68.923-19.759-92.85-59.599
								c-26.476-44.084-59.327-71.126-59.327-71.126s19.59,33.963,33.7,72.038C132.089,374.562,184.237,392.666,231.324,380.943z"/>
						</g>
					</g>
					<g>
						<path style="fill:#0E8C74;" d="M158.861,215.809c-6.915-9.428-12.174-20.019-15.996-31.051
							c-3.955-11.414-6.398-23.305-7.861-35.282c-0.849-6.957-1.365-13.95-1.668-20.951c-0.037-0.845-1.36-0.925-1.323-0.074
							c0.543,12.536,1.761,25.072,4.31,37.37c2.425,11.698,6.075,23.184,11.334,33.927c2.908,5.939,6.316,11.623,10.227,16.956
							C158.387,217.39,159.361,216.491,158.861,215.809L158.861,215.809z"/>
						<path style="fill:#0E8C74;" d="M146.832,196.221c0,0-24.576-28.212-31.403-20.817
							C108.602,182.799,135.379,197.983,146.832,196.221z"/>
						<path style="fill:#0E8C74;" d="M140.271,179.194c0,0-17.726-28.573-24.849-22.999
							C108.298,161.769,129.857,179.103,140.271,179.194z"/>
						<path style="fill:#0E8C74;" d="M136.586,161.236c0,0-15.531-25.035-21.773-20.152
							C108.571,145.968,127.461,161.156,136.586,161.236z"/>
						<path style="fill:#0E8C74;" d="M133.364,144.35c0,0-8.774-23.506-14.804-20.474
							C112.531,126.909,125.759,142.755,133.364,144.35z"/>
						<path style="fill:#0E8C74;" d="M147.916,199.24c0,0,5.096-37.067,14.859-34.623
							C172.539,167.062,158.462,194.437,147.916,199.24z"/>
						<path style="fill:#0E8C74;" d="M141.435,181.99c0,0,4.324-33.345,13.115-31.216
							C163.341,152.904,150.879,177.602,141.435,181.99z"/>
						<path style="fill:#0E8C74;" d="M135.373,160.18c0,0,8.227-28.29,15.552-25.264C158.25,137.941,144.14,157.649,135.373,160.18z
							"/>
						<path style="fill:#0E8C74;" d="M133.295,143.993c0,0,4.322-24.715,10.805-22.838
							C150.583,123.032,140.48,141.033,133.295,143.993z"/>
						<path style="fill:#0E8C74;" d="M133.284,132.396c0,0,7.131-24.056,0.49-25.26C127.134,105.93,128.169,126.547,133.284,132.396
							z"/>
					</g>
					<g>
						<path style="fill:#0E7763;" d="M342.28,208.898c10.742-3.686,22.084-5.499,33.419-5.853
							c11.728-0.366,23.461,0.806,34.991,2.914c6.697,1.224,13.331,2.768,19.911,4.512c0.794,0.21,1.251-0.993,0.451-1.205
							c-11.782-3.122-23.759-5.618-35.9-6.81c-11.549-1.134-23.256-1.072-34.739,0.698c-6.349,0.978-12.605,2.495-18.681,4.58
							C340.95,208.002,341.503,209.165,342.28,208.898L342.28,208.898z"/>
						<path style="fill:#0E7763;" d="M363.922,203.409c0,0,33.269-14.631,28.386-23.1
							C387.425,171.84,365.601,192.279,363.922,203.409z"/>
						<path style="fill:#0E7763;" d="M381.609,202.249c0,0,31.622-8.174,28.513-16.392
							C407.013,177.639,384.705,192.618,381.609,202.249z"/>
						<path style="fill:#0E7763;" d="M399.328,204.025c0,0,27.707-7.162,24.983-14.363
							C421.587,182.463,402.04,195.587,399.328,204.025z"/>
						<path style="fill:#0E7763;" d="M415.917,205.921c0,0,24.335-1.339,23.267-7.807
							C438.116,191.646,419.596,199.33,415.917,205.921z"/>
						<path style="fill:#0E7763;" d="M360.809,203.541c0,0,32.899,15.445,27.809,23.792
							C383.527,235.68,362.213,214.71,360.809,203.541z"/>
						<path style="fill:#0E7763;" d="M378.679,202.52c0,0,29.671,13.653,25.154,21.189
							C399.316,231.245,380.018,212.547,378.679,202.52z"/>
						<path style="fill:#0E7763;" d="M400.658,203.206c0,0,23.854,15.81,18.93,21.728
							C414.664,230.852,400.468,212.068,400.658,203.206z"/>
						<path style="fill:#0E7763;" d="M416.268,205.96c0,0,21.669,11.155,18.053,16.624
							C430.706,228.053,416.936,213.479,416.268,205.96z"/>
						<path style="fill:#0E7763;" d="M427.026,209.304c0,0,20.245,13.569,23.282,7.76
							C453.346,211.255,433.929,206.252,427.026,209.304z"/>
					</g>
				</g>
			</g>
			<g>
				
					<ellipse transform="matrix(0.7071 -0.7071 0.7071 0.7071 -110.3589 259.9851)" style="fill:#92DEFF;" cx="258.65" cy="263.208" rx="120.904" ry="120.904"/>
				
					<ellipse transform="matrix(0.7071 -0.7071 0.7071 0.7071 -110.3589 259.9851)" style="fill:#B3EBFF;" cx="258.65" cy="263.208" rx="120.904" ry="120.904"/>
				<path style="fill:#92DEFF;" d="M265.899,142.525c18.972,16.618,30.955,41.019,30.955,68.222
					c0,50.072-40.592,90.664-90.664,90.664c-27.203,0-51.604-11.983-68.222-30.955c3.75,63.398,56.343,113.656,120.682,113.656
					c66.774,0,120.904-54.131,120.904-120.904C379.555,198.868,329.297,146.275,265.899,142.525z"/>
				<path style="fill:#59CEF7;" d="M319.882,158.943c10.57,17.959,16.639,38.885,16.639,61.231
					c0,66.774-54.131,120.904-120.904,120.904c-22.346,0-43.272-6.07-61.231-16.639c21.014,35.706,59.838,59.673,104.265,59.673
					c66.774,0,120.904-54.131,120.904-120.904C379.555,218.78,355.587,179.957,319.882,158.943z"/>
				<path style="fill:#1AAA8E;" d="M377.062,287.743c-11.719-5.558-22.585-10.51-17.21-16.241c8.028-8.567,10.381,6.02,18.82,6.332
					c0.578-4.795,0.883-9.675,0.883-14.626c0-45.714-25.374-85.498-62.803-106.048c-1.482-0.628-2.978-1.229-4.489-1.802
					c-15.224,6.345-7.574,16.181-3.475,18.094c12.503,5.835,54.343-2.995,24.814,17.341c-13.379,9.214-31.082,8.366-25.36,21.184
					c6.831,15.301,16.394,12.478,25.866,19.399c9.552,6.98,0.23,15.56-14.208,9.654c-14.438-5.906-26.326-8.896-39.451,8.821
					c-13.118,17.71-36.088,50.519-9.838,50.519c26.243,0,30.642-0.881,26.702,22.082c-3.932,22.971-3.739,10.074,12.013,27.131
					c5.056,5.478,4.698,13.729,2.668,22.146C344.949,355.499,369.442,324.706,377.062,287.743z"/>
				<path style="fill:#31C9AC;" d="M238.9,322.828c0,0,5.767-5.775-17.318-18.036c-23.085-12.269-15.148-11.543-28.861-7.219
					c-13.704,4.331-17.31,5.775-32.458-10.099c-15.148-15.866,5.767-13.704,22.359-12.986c16.592,0.726-5.767-19.48,13.712-28.853
					c19.472-9.381,15.866-17.318,15.866-17.318c17.318,0.726,21.641-10.099,11.543-18.036c-10.099-7.937-8.655-10.099-20.916-28.135
					c-12.268-18.036-22.367,7.937-33.192,15.874c-3.991,2.929-6.901-0.339-8.988-5.621c-14.405,19.903-22.903,44.361-22.903,70.808
					c0,14.447,2.538,28.301,7.186,41.144c1.341,0.768,2.659,1.518,3.947,2.247c13.702,7.761,23.743,20.72,27.632,35.98
					c1.472,5.775,3.117,10.694,4.669,11.988c4.331,3.606,8.663,5.049,15.874,8.655c1.355,0.678,1.863,2.534,1.805,5.089
					c10.198,5.814,21.324,10.185,33.102,12.839c0.733-1.726,1.164-2.779,1.164-2.779s15.148-5.767,15.874-7.929
					c0.718-2.17,15.708-27.521,15.708-36.331C264.707,322.089,238.9,322.828,238.9,322.828z"/>
				<path style="fill:#31C9AC;" d="M277.827,143.823c-6.247-0.996-12.65-1.52-19.177-1.52c-12.77,0-25.075,1.986-36.629,5.655
					c2.013,2.685,3.457,5.763,3.773,9.217c1.313,14.438,8.119,21.415,24.523,16.822
					C260.882,171.037,271.705,158.676,277.827,143.823z"/>
			</g>
			<g>
				<g>
					<path style="fill:#7BDDFF;" d="M406.222,366.501h-46.599v53.661c0,1.55,1.257,2.806,2.806,2.806h40.986
						c1.55,0,2.806-1.256,2.806-2.806V366.501z"/>
					<path style="fill:#59CEF7;" d="M403.046,366.501v56.467h0.719c1.357,0,2.457-1.1,2.457-2.457v-54.01H403.046z"/>
					<rect x="359.623" y="366.501" style="fill:#59CEF7;" width="46.599" height="5.338"/>
					<rect x="355.259" y="361.104" style="fill:#7BDDFF;" width="55.327" height="5.397"/>
					<polygon style="fill:#7BDDFF;" points="367.398,343.757 398.448,343.757 406.334,361.104 359.512,361.104 					"/>
					<polygon style="fill:#2B9BBA;" points="373.204,350.245 392.641,350.245 397.578,361.104 368.268,361.104 					"/>
					<polygon style="fill:#59CEF7;" points="360.971,357.895 359.512,361.104 406.334,361.104 404.875,357.895 					"/>
					<g>
						<path style="fill:#FFFFFF;" d="M376.004,397.688l2.323,1.485l-1.677-6.285l-6.408,1.116l2.401,1.535l-2.027,3.021
							c-2.397,3.572,0.181,8.369,4.483,8.342c0,0-0.02-0.006-0.057-0.019c0.122,0.012,0.25,0.018,0.382,0.017l3.939-0.025
							l0.096-4.02l-6.914,0.045L376.004,397.688z M372.541,403.084c0-0.016,0-0.033,0-0.049
							C372.541,403.051,372.541,403.067,372.541,403.084z"/>
						<g>
							<path style="fill:#FFFFFF;" d="M382.859,387.602l2.694,3.852l-2.399,1.879l6.485,0.5l1.07-6.416l-1.993,1.56l-1.458-2.075
								c-2.146-3.111-6.752-3.082-8.858,0.057l-2.553,3.805l3.435,2.094l3.196-4.763
								C382.594,387.922,382.722,387.757,382.859,387.602z M384.171,386.593c0.002-0.001,0.003-0.002,0.005-0.002
								c-0.005,0.002-0.009,0.005-0.014,0.007C384.165,386.597,384.168,386.595,384.171,386.593z"/>
							<path style="fill:#FFFFFF;" d="M395.191,398.402l-2.953-4.282l-3.546,1.937l4.151,6.017c0.15,0.217,0.272,0.45,0.365,0.692
								l-7.472,0.048l-0.022-2.556l-4.352,4.835l4.432,4.761l-0.025-3.021l5.048-0.033c1.861-0.012,3.387-0.923,4.323-2.239
								C396.366,402.835,396.578,400.412,395.191,398.402z"/>
						</g>
					</g>
				</g>
				<g>
					<g>
						<path style="fill:#46DBBF;" d="M288.593,257.408c0,0-3.745-33.533-33.048-36.238c0,0,3.659,16.158,14.619,23.4
							C281.123,251.812,285.812,252.65,288.593,257.408z"/>
						<path style="fill:#46DBBF;" d="M292.164,253.257c0,0-1.596-34.378,21.833-43.917c0,0,0.916,16.542-7.635,26.513
							C297.811,245.825,293.533,247.917,292.164,253.257z"/>
						<path style="fill:#065949;" d="M292.199,273.752c-0.168-0.014-0.304-0.151-0.312-0.324
							c-1.119-24.338-23.798-41.988-24.027-42.164c-0.149-0.114-0.177-0.328-0.063-0.477c0.114-0.149,0.328-0.177,0.477-0.063
							c0.232,0.177,23.159,18.014,24.293,42.673c0.009,0.187-0.136,0.347-0.324,0.355
							C292.228,273.754,292.214,273.753,292.199,273.752z"/>
						<path style="fill:#065949;" d="M291.334,267.263c-0.158-0.013-0.29-0.135-0.31-0.298c-0.028-0.235-2.612-23.763,15.393-44.242
							c0.125-0.141,0.34-0.153,0.481-0.031c0.141,0.124,0.155,0.339,0.031,0.48c-17.798,20.243-15.256,43.48-15.229,43.712
							c0.022,0.187-0.111,0.356-0.298,0.378C291.379,267.264,291.356,267.264,291.334,267.263z"/>
					</g>
					<g>
						<g>
							<path style="fill:#5CADE5;" d="M352.981,279.157c0,0,4.549,0.642,7.654,5.727c3.104,5.085,3.8,15.896,3.8,15.896h-10.758
								L352.981,279.157z"/>
							<path style="fill:#F9CFAA;" d="M362.968,319.242c-0.213,0.939-2.245,3.833-4.278,6.552
								c-0.794-5.246-1.703-15.495-1.21-25.019h5.807C363.307,304.386,363.336,317.577,362.968,319.242z"/>
						</g>
						<g>
							<g>
								<path style="fill:#F9CFAA;" d="M292.357,275.498c0,0,17.057,27.55,21.953,29.066c2.176,0.674,15.618-4.773,21.306-5.783
									c3.074-0.546,5.204-3.372,4.879-6.477l0,0c-0.372-3.559-4.497-6.537-7.983-5.726l-18.679,6.081
									c0,0-16.087-16.219-19.672-19.927c0,0-1.524-4.601-3.704-4.573C288.511,268.184,291.543,273.92,292.357,275.498z"/>
								<path style="fill:#DE8162;" d="M328.373,300.773c-5.904,1.887-12.582,4.249-14.063,3.794
									c-4.897-1.52-21.951-29.064-21.951-29.064c-0.106-0.213-0.252-0.494-0.426-0.823c1.016,1.481,19.009,27.642,22.754,27.332
									c2.555-0.213,8.866-2.168,12.834-3.455C327.812,299.311,328.093,300.057,328.373,300.773z"/>
							</g>
							<path style="fill:#2B6799;" d="M368.72,418.901h-11.034l-15.602-52.99l-6.194-34.01c6.804,1.423,13.927,0.9,20.528-1.587
								l2.971-1.181c0,0,0.252,34,0.687,34.639C360.455,364.354,367.443,409.746,368.72,418.901z"/>
							<path style="fill:#4080C0;" d="M359.39,329.134l-21.263,33.788l-0.203,55.98h-10.52l-8.004-57.693l9.553-31.484
								c8.74,3.726,18.583,3.939,27.467,0.591L359.39,329.134z"/>
							<circle style="fill:#2B6799;" cx="346.184" cy="265.161" r="9.018"/>
							<g>
								<path style="fill:#F9CFAA;" d="M338.584,260.21C330.743,273.698,341.26,276,341.26,276v3.494h9.418v-6.203v-0.569
									c0,0-3.584-1.044-2.019-1.846c1.566-0.803,2.208-2.489,1.124-4.415c-1.084-1.927-2.73-0.08-2.73-0.08
									s-1.164-0.682-2.288-3.532"/>
								<path style="fill:#DE8162;" d="M341.26,279.494V276c0,0,3.85,0.151,5.487-1.34c0,0-1.149,2.664-3.666,2.737v2.096H341.26z"
									/>
							</g>
							<path style="fill:#72BDF8;" d="M351.646,278.995c0,0,8.614-0.374,6.447,14.96c-1.959,13.855,0.388,32.962,1.296,35.18
								l-2.967,1.182c-8.892,3.341-18.729,3.129-27.468-0.594h0c0,0,4.555-37.558,9.814-48.032c0.715-1.423,2.179-2.316,3.77-2.372
								L351.646,278.995z"/>
							<path style="fill:#72BDF8;" d="M359.387,329.133l-2.962,1.181c-0.552,0.213-1.113,0.406-1.674,0.581
								c0.697-0.871,2.313-2.933,3.939-5.101C358.951,327.498,359.203,328.679,359.387,329.133z"/>
							<path style="fill:#124E77;" d="M337.57,418.901v7.386h-19.098c-0.869,0-1.222-1.257-0.415-1.581
								c6.602-2.652,10.844-5.805,10.844-5.805H337.57z"/>
							<path style="fill:#124E77;" d="M367.839,418.901v7.386h-19.097c-0.869,0-1.222-1.257-0.415-1.581
								c6.602-2.652,10.844-5.805,10.844-5.805H367.839z"/>
							<path style="fill:#5AACE5;" d="M351.349,293.875l-16.434,0.179c-3.448,14.952-5.961,35.671-5.961,35.671h0
								c1.299,0.553,2.625,1.02,3.966,1.418l3.336-23.53c0.384-2.71,2.449-4.876,5.138-5.388l0,0
								C347.817,301.582,351.349,293.875,351.349,293.875z"/>
							<path style="fill:#72BDF8;" d="M352.098,287.078c-0.709-4.593-5.62-7.279-11.431-5.459l-17.322,6.594
								c1.661,3.9,4.118,10.18,5.873,14.727c5.785-2.175,12.398-4.748,16.252-5.688
								C351.188,295.855,352.717,291.085,352.098,287.078z"/>
							<polygon style="fill:#2B6799;" points="322.392,363.77 327.396,418.898 319.401,361.205 328.954,329.721 332.922,331.154 
															"/>
						</g>
						<path style="fill:#5CADE5;" d="M354.403,331.001c0.116-0.029,0.232-0.068,0.348-0.107c-0.223,0.29-0.348,0.445-0.348,0.445
							V331.001z"/>
					</g>
				</g>
				<g>
					<path style="fill:#1AAA8E;" d="M181.949,259.456c0-1.216-2.68-2.203-5.985-2.203c-3.306,0-5.985,0.986-5.985,2.203
						c0,1.216,2.68,2.203,5.985,2.203C179.269,261.659,181.949,260.673,181.949,259.456z"/>
					<g>
						<path style="fill:#1AAA8E;" d="M174.547,246.751c0,0,0.254-25.784-21.727-30.54c0,0,1.285,12.595,8.93,19.1
							C169.396,241.816,172.876,242.884,174.547,246.751z"/>
						<path style="fill:#1AAA8E;" d="M177.639,243.931c0,0,1.962-26.227,20.616-31.301c0,0-0.831,12.633-8.239,19.409
							C182.609,238.814,179.17,240.007,177.639,243.931z"/>
						<path style="fill:#065949;" d="M175.774,259.483c-0.126-0.026-0.216-0.142-0.206-0.274
							c1.397-18.567-14.178-34.049-14.336-34.203c-0.103-0.1-0.104-0.265-0.004-0.368c0.1-0.103,0.265-0.104,0.368-0.004
							c0.159,0.156,15.906,15.803,14.491,34.614c-0.011,0.143-0.136,0.251-0.279,0.24
							C175.796,259.486,175.785,259.485,175.774,259.483z"/>
						<path style="fill:#065949;" d="M175.716,254.48c-0.118-0.024-0.207-0.129-0.207-0.255c0.001-0.181,0.211-18.268,15.761-32.142
							c0.108-0.096,0.272-0.085,0.367,0.021c0.095,0.107,0.086,0.271-0.021,0.367c-15.37,13.714-15.586,31.576-15.587,31.755
							c-0.001,0.143-0.117,0.26-0.261,0.259C175.751,254.485,175.733,254.483,175.716,254.48z"/>
					</g>
				</g>
				<g>
					<path style="fill:#1AAA8E;" d="M254.433,159.724c0-1.227-2.702-2.221-6.036-2.221c-3.334,0-6.036,0.995-6.036,2.221
						c0,1.227,2.702,2.221,6.036,2.221C251.73,161.945,254.433,160.951,254.433,159.724z"/>
					<g>
						<path style="fill:#1AAA8E;" d="M247.285,148.973c0,0,0.212-21.542-18.152-25.515c0,0,1.073,10.523,7.461,15.958
							S245.889,145.743,247.285,148.973z"/>
						<path style="fill:#1AAA8E;" d="M249.868,146.617c0,0,1.639-21.912,17.224-26.151c0,0-0.695,10.555-6.883,16.215
							C254.02,142.342,251.147,143.339,249.868,146.617z"/>
						<path style="fill:#065949;" d="M248.309,159.61c-0.105-0.022-0.181-0.119-0.172-0.229
							c1.167-15.512-11.845-28.447-11.977-28.576c-0.086-0.084-0.087-0.221-0.003-0.307c0.084-0.086,0.222-0.087,0.307-0.003
							c0.133,0.13,13.289,13.203,12.106,28.919c-0.009,0.119-0.113,0.209-0.233,0.2C248.328,159.613,248.319,159.612,248.309,159.61
							z"/>
						<path style="fill:#065949;" d="M248.261,155.43c-0.099-0.02-0.173-0.108-0.173-0.213c0-0.151,0.177-15.262,13.168-26.854
							c0.09-0.08,0.227-0.071,0.307,0.018c0.079,0.09,0.072,0.227-0.018,0.307c-12.841,11.458-13.022,26.381-13.022,26.53
							c0,0.12-0.098,0.217-0.218,0.217C248.29,155.434,248.275,155.433,248.261,155.43z"/>
					</g>
				</g>
				<g>
					<g>
						<path style="fill:#FF9D4D;" d="M234.96,296.401l-20.756-1.203c-0.813-0.059-18.712-13.697-18.712-13.697
							c-1.315-1.94-2.484-3.524-3.63-4.817l-1.222,15.767c0,0,17.885,9.786,21.505,9.83l22.75-1.855L234.96,296.401z"/>
						<g>
							<path style="fill:#0E8C74;" d="M241.69,287.667c0,0-0.467-27.499-13.009-33.264c0,0-3.038,8.951,6.03,17.825
								c1.203,1.177,2.213,2.532,2.923,4.058C239.006,279.242,241.124,284.185,241.69,287.667z"/>
							<path style="fill:#0E8C74;" d="M241.746,287.667c0,0,0.554-32.565,15.406-39.392c0,0,3.598,10.601-7.141,21.109
								c-1.425,1.394-2.621,2.998-3.461,4.806C244.925,277.69,242.417,283.544,241.746,287.667z"/>
						</g>
						<polygon style="fill:#E26D44;" points="255.008,283.587 228.981,283.587 232.782,303.98 251.207,303.98 						"/>
						<polygon style="fill:#D1552F;" points="249.322,283.587 245.521,303.98 251.207,303.98 255.008,283.587 						"/>
						<polygon style="fill:#2B6799;" points="189.988,326.373 192.062,374.679 177.423,412.212 184.722,414.673 210.139,378.404 
							210.432,325.692 						"/>
						<path style="fill:#FFC74A;" d="M211.252,295.431c-0.108,0.058,1.804,11.973,2.836,30.684l-24.1,0.258
							c2.597-12.447,1.714-14.556-0.386-35.634l0,0c-1.627-6.165,3.942-10.973,10.292-11.546c8.851-0.798,11.96,1.011,17.974,8.556
							l6.182,13.115c0.348,0.737,1.091,1.207,1.906,1.203l16.542-0.076l0.246,4.019l-18.294,3.278
							c-1.829,0.154-3.606-0.659-4.685-2.144L211.252,295.431z"/>
						<path style="fill:#F9CFAA;" d="M205.508,270.693v8.433c-1.602-0.168-3.441-0.129-5.616,0.069c-0.03,0-0.049,0-0.079,0.01
							v-10.144L205.508,270.693z"/>
						<polygon style="fill:#4080C0;" points="189.988,326.373 208.956,417.215 217.321,417.215 214.088,326.115 						"/>
						<path style="fill:#2B6799;" d="M199.689,270.181c0,0,4.824,15.563-4.182,18.115c-9.841,2.788-15.855-6.342-4.702-18.972
							c0,0-1.336-11.191,9.294-12.347c11.153-1.212,9.831,5.857,9.713,7.685c-0.118,1.828-5.695,3.632-5.695,3.632L199.689,270.181z
							"/>
						<path style="fill:#F9CFAA;" d="M203.565,263.978c2.941,1.345,6.247,0.684,6.247,0.684c1.399,4.822-0.609,9.989-4.095,10.794
							c-4.198,0.97-5.168-5.1-5.168-5.1c-2.01-0.183-2.394-3.084-1.013-4.289c1.226-1.07,2.702,1.004,2.702,1.004L203.565,263.978z"
							/>
						<path style="fill:#124E77;" d="M210.323,417.215v6.725h16.962c0.665,0,0.923-0.869,0.363-1.227
							c-1.041-0.664-11.286-5.498-11.286-5.498H210.323z"/>
						<path style="fill:#124E77;" d="M177.921,412.344l-2.163,6.367l16.061,5.457c0.63,0.214,1.154-0.526,0.738-1.045
							c-0.772-0.964-8.918-8.836-8.918-8.836L177.921,412.344z"/>
						<path style="fill:#F9CFAA;" d="M242.498,301.991c0,0,6.096-1.339,5.877-0.574c-0.219,0.765-1.531,1.312-1.531,1.312
							s5.03-0.875,5.139,0.219c0.109,1.093-2.078,3.827-9.951,3.28L242.498,301.991z"/>
					</g>
					<path style="fill:#F9B52B;" d="M206.788,289.701c0.401,1.445,1.525,5.7,2.73,11.801c0.719,3.641,0.865,15.599,0.867,24.652
						l3.703-0.04c-1.032-18.711-2.944-30.626-2.836-30.684C211.252,295.431,206.387,288.255,206.788,289.701z"/>
				</g>
				<g>
					<g>
						<path style="fill:#0E8C74;" d="M119.847,414.058c0,0-4.859-27.283-23.545-34.384
							C96.302,379.674,101.347,405.649,119.847,414.058z"/>
						<path style="fill:#0E8C74;" d="M118.737,414.058c0,0,4.593-25.792,22.258-32.505
							C140.995,381.553,136.225,406.108,118.737,414.058z"/>
						<path style="fill:#1AAA8E;" d="M121.412,414.174c0,0,9.571-34.874-8.467-53.718
							C112.945,360.456,104.327,393.893,121.412,414.174z"/>
					</g>
					<g>
						<path style="fill:#E26D44;" d="M157.293,425.752c-2.714-8.586-18.368-15.172-37.275-15.172
							c-18.908,0-34.561,6.585-37.276,15.172H157.293z"/>
						<path style="fill:#D1552F;" d="M120.018,410.58c-2.464,0-4.87,0.114-7.202,0.328c15.564,1.425,27.713,7.376,30.074,14.844
							h14.404C154.579,417.165,138.925,410.58,120.018,410.58z"/>
					</g>
				</g>
			</g>
		</g>
	</g>
</g>
</svg>
